<svg width="675" height="410" viewBox="0 0 675 410" fill="none" xmlns="http://www.w3.org/2000/svg"  >

  <defs>
    <filter id="goo">
      <feGaussianBlur in="SourceGraphic" stdDeviation="15" result="blur" />
      <feColorMatrix in="blur" mode="matrix" values="1 0 0 0 0  0 1 0 0 0  0 0 1 0 0  0 0 0 27 -10" result="goo" />
    </filter>
  </defs>

  <path id="path1" d="M540.5 186.5C540.5 217.692 510.453 234.219 474.5 254.5C437.565 275.335 393.973 315 338 315C291.5 302.5 251.773 285.194 219 273C177.046 257.389 154 238.503 154 203C154 167.497 172.046 133.958 214 110.053C246.773 91.3795 289.558 70 338 70C393.973 70 437.565 99.6851 474.5 119C510.453 137.801 540.5 155.308 540.5 186.5Z" fill="transparant"/>
  <path id="path2" d="M540.5 186.5C540.5 217.692 522.953 260.916 487 281.196C450.065 302.031 393.973 299.5 338 299.5C291.5 281.196 251.773 283.194 219 271C177.046 255.389 130 222.003 130 186.5C130 150.997 190.5 147.5 214 110.053C237.5 72.6055 289.558 92 338 92C393 81.5 450.5 62.5 482.153 110.053C529 120 540.5 155.308 540.5 186.5Z" fill="transparant"/>
  <path id="path3" d="M540.5 186.5C550 218.5 495.5 234.5 482.153 265.887C467.859 299.5 393.973 281.197 338 281.197C290.5 281.197 237 302.5 214 281.197C172.046 265.586 156 239.503 156 204C156 168.497 177.046 144.405 219 120.5C251.773 101.827 289.558 68 338 68C393.973 68 431.5 110.053 482.153 110.053C517.5 110.053 540.5 155.308 540.5 186.5Z" fill="transparant"/>
  <path id="path4" d="M557.5 168.5C557.5 199.692 518.105 245.606 482.153 265.887C445.218 286.721 384.5 265.887 338 299.5C290 315 236 317 214 281.197C172.046 265.586 163.5 244.003 163.5 208.5C163.5 172.997 172.046 133.958 214 110.053C246.773 91.3795 296.5 63.5 338 79.5C393.973 79.5 435 110.053 482.153 110.053C518.105 128.854 557.5 137.308 557.5 168.5Z" fill="transparant"/>
  <path id="path5" d="M551 193.5C551 224.692 505 232.5 482.153 265.887C459.306 299.273 393.973 299.5 338 299.5C289.558 299.5 260.273 278.081 227.5 265.887C185.546 250.276 137 222.003 137 186.5C137 150.997 174.046 142.905 216 119C268 110.053 277.558 63.5 326 63.5C381.973 63.5 440 119 482.153 110.053C531 110.053 551 162.308 551 193.5Z" fill="transparant"/>
  <path id="path6" d="M540.5 186.5C540.5 217.692 523 256.5 482.153 265.887C422.5 265.887 384.5 314 338 299.5C289.558 299.5 262 265.887 221 271C181.5 271 122.5 230 130 203C165.5 181 172.046 133.958 214 110.053C246.773 91.3795 335.058 64.5 383.5 64.5C439.473 64.5 427.065 103.185 464 122.5C499.953 141.301 540.5 155.308 540.5 186.5Z" fill="transparant"/>
  <path id="path7" d="M518.5 194.5C577.5 212.5 518.105 245.606 482.153 265.887C445.218 286.721 400.473 286 344.5 286C296.058 286 246.773 293.391 214 281.196C172.046 265.586 158 240.503 158 205C158 169.497 219 129.5 247.5 84.5C255.5 66 296.058 77.5 344.5 77.5C395 62.5 466.065 96.6851 503 116C538.953 134.801 503 168.5 518.5 194.5Z" fill="transparant"/>
  <path id="path8" d="M547 171.5C547 202.692 518.105 245.606 482.153 265.887C445.218 286.721 470.5 295 408.5 295C341.5 274.5 246.773 293.391 214 281.197C172.046 265.586 156 196.503 156 161C156 125.497 186.546 143.905 228.5 120C261.273 101.327 277.558 71 326 71C381.973 71 433.565 100.685 470.5 120C506.453 138.801 547 140.308 547 171.5Z" fill="transparant"/>
  <path id="path9" d="M528 190.5C528 221.692 520.953 248.719 485 269C448.065 289.835 396.473 273.5 340.5 273.5C292.058 273.5 246.773 302.194 214 290C172.046 274.389 157 238.503 157 203C157 167.497 172.046 124.405 214 100.5C246.773 81.8267 275.058 93 323.5 93C379.473 93 448.065 81.1851 485 100.5C520.953 119.301 528 159.308 528 190.5Z" fill="transparant"/>

  <g filter="url(#goo)">
  <circle r="28" fill="rgba(180, 180, 180, 0.8)">
    <animateMotion dur="16s" begin="-20s" repeatCount="indefinite">
      <mpath href="#path1" />
    </animateMotion>
  </circle>

  <circle r="35" fill="rgba(180, 180, 180, 0.8)">
    <animateMotion dur="19s" begin="-33s" repeatCount="indefinite">
      <mpath href="#path2" />
    </animateMotion>
  </circle>

  <circle r="20" fill="rgba(180, 180, 180, 0.8)">
    <animateMotion dur="11s" begin="-20s" repeatCount="indefinite">
      <mpath href="#path3" />
    </animateMotion>
  </circle>

  <circle r="30" fill="rgba(180, 180, 180, 0.8)">
    <animateMotion dur="21s" begin="-20s" repeatCount="indefinite">
      <mpath href="#path4" />
    </animateMotion>
  </circle>

  <circle r="40" fill="v">
    <animateMotion dur="12s" begin="-28s" repeatCount="indefinite">
      <mpath href="#path5" />
    </animateMotion>
  </circle>

  <circle r="25" fill="rgba(180, 180, 180, 0.8)">
    <animateMotion dur="15s" begin="-20s" repeatCount="indefinite">
      <mpath href="#path6" />
    </animateMotion>
  </circle>

  <circle r="25" fill="rgba(180, 180, 180, 0.8)">
    <animateMotion dur="20s" begin="-20s" repeatCount="indefinite">
      <mpath href="#path7" />
    </animateMotion>
  </circle>

  <circle r="33" fill="rgba(180, 180, 180, 0.8)">
    <animateMotion dur="17s" begin="-20s" repeatCount="indefinite">
      <mpath href="#path8" />
    </animateMotion>
  </circle>

  <circle r="28" fill="rgba(180, 180, 180, 0.8)">
    <animateMotion dur="17s" begin="-20s" repeatCount="indefinite">
      <mpath href="#path9" />
    </animateMotion>
  </circle>

  <circle r="37" fill="rgba(180, 180, 180, 0.8)">
    <animateMotion dur="14s" begin="-20s" repeatCount="indefinite">
      <mpath href="#path" />
    </animateMotion>
  </circle>

  <path id="path" d="M540.5 186.5C540.5 217.692 518.105 245.606 482.153 265.887C445.218 286.721 393.973 299.5 338 299.5C289.558 299.5 246.773 293.391 214 281.197C172.046 265.586 146.5 240.003 146.5 204.5C146.5 168.997 172.046 133.958 214 110.053C246.773 91.3795 289.558 79.5 338 79.5C393.973 79.5 445.218 90.7378 482.153 110.053C518.105 128.854 540.5 155.308 540.5 186.5Z" fill="rgb(120,120,120)">
    <animate
      attributeName="d"
      dur="10s"
      repeatCount="indefinite"
      values="
        M540.5 186.5C540.5 217.692 518.105 245.606 482.153 265.887C445.218 286.721 393.973 299.5 338 299.5C289.558 299.5 246.773 293.391 214 281.197C172.046 265.586 146.5 240.003 146.5 204.5C146.5 168.997 172.046 133.958 214 110.053C246.773 91.3795 289.558 79.5 338 79.5C393.973 79.5 445.218 90.7378 482.153 110.053C518.105 128.854 540.5 155.308 540.5 186.5Z;
        M540.5 186.5C540.5 217.692 510.453 234.219 474.5 254.5C437.565 275.335 393.973 315 338 315C291.5 302.5 251.773 285.194 219 273C177.046 257.389 154 238.503 154 203C154 167.497 172.046 133.958 214 110.053C246.773 91.3795 289.558 70 338 70C393.973 70 437.565 99.6851 474.5 119C510.453 137.801 540.5 155.308 540.5 186.5Z;
        M540.5 186.5C540.5 217.692 522.953 260.916 487 281.196C450.065 302.031 393.973 299.5 338 299.5C291.5 281.196 251.773 283.194 219 271C177.046 255.389 130 222.003 130 186.5C130 150.997 190.5 147.5 214 110.053C237.5 72.6055 289.558 92 338 92C393 81.5 450.5 62.5 482.153 110.053C529 120 540.5 155.308 540.5 186.5Z;
        M540.5 186.5C550 218.5 495.5 234.5 482.153 265.887C467.859 299.5 393.973 281.197 338 281.197C290.5 281.197 237 302.5 214 281.197C172.046 265.586 156 239.503 156 204C156 168.497 177.046 144.405 219 120.5C251.773 101.827 289.558 68 338 68C393.973 68 431.5 110.053 482.153 110.053C517.5 110.053 540.5 155.308 540.5 186.5Z;
        M557.5 168.5C557.5 199.692 518.105 245.606 482.153 265.887C445.218 286.721 384.5 265.887 338 299.5C290 315 236 317 214 281.197C172.046 265.586 163.5 244.003 163.5 208.5C163.5 172.997 172.046 133.958 214 110.053C246.773 91.3795 296.5 63.5 338 79.5C393.973 79.5 435 110.053 482.153 110.053C518.105 128.854 557.5 137.308 557.5 168.5Z;
        M551 193.5C551 224.692 505 232.5 482.153 265.887C459.306 299.273 393.973 299.5 338 299.5C289.558 299.5 260.273 278.081 227.5 265.887C185.546 250.276 137 222.003 137 186.5C137 150.997 174.046 142.905 216 119C268 110.053 277.558 63.5 326 63.5C381.973 63.5 440 119 482.153 110.053C531 110.053 551 162.308 551 193.5Z;
        M540.5 186.5C540.5 217.692 523 256.5 482.153 265.887C422.5 265.887 384.5 314 338 299.5C289.558 299.5 262 265.887 221 271C181.5 271 122.5 230 130 203C165.5 181 172.046 133.958 214 110.053C246.773 91.3795 335.058 64.5 383.5 64.5C439.473 64.5 427.065 103.185 464 122.5C499.953 141.301 540.5 155.308 540.5 186.5Z;
        M518.5 194.5C577.5 212.5 518.105 245.606 482.153 265.887C445.218 286.721 400.473 286 344.5 286C296.058 286 246.773 293.391 214 281.196C172.046 265.586 158 240.503 158 205C158 169.497 219 129.5 247.5 84.5C255.5 66 296.058 77.5 344.5 77.5C395 62.5 466.065 96.6851 503 116C538.953 134.801 503 168.5 518.5 194.5Z;
        M547 171.5C547 202.692 518.105 245.606 482.153 265.887C445.218 286.721 470.5 295 408.5 295C341.5 274.5 246.773 293.391 214 281.197C172.046 265.586 156 196.503 156 161C156 125.497 186.546 143.905 228.5 120C261.273 101.327 277.558 71 326 71C381.973 71 433.565 100.685 470.5 120C506.453 138.801 547 140.308 547 171.5Z;
        M528 190.5C528 221.692 520.953 248.719 485 269C448.065 289.835 396.473 273.5 340.5 273.5C292.058 273.5 246.773 302.194 214 290C172.046 274.389 157 238.503 157 203C157 167.497 172.046 124.405 214 100.5C246.773 81.8267 275.058 93 323.5 93C379.473 93 448.065 81.1851 485 100.5C520.953 119.301 528 159.308 528 190.5Z;
        M540.5 186.5C540.5 217.692 518.105 245.606 482.153 265.887C445.218 286.721 393.973 299.5 338 299.5C289.558 299.5 246.773 293.391 214 281.197C172.046 265.586 146.5 240.003 146.5 204.5C146.5 168.997 172.046 133.958 214 110.053C246.773 91.3795 289.558 79.5 338 79.5C393.973 79.5 445.218 90.7378 482.153 110.053C518.105 128.854 540.5 155.308 540.5 186.5Z;
      "
    />
  </path>
  </g>
</svg>
